PrintShoppe.ufo
<glyph name="C" format="2">
	<unicode hex="0043"/>
	<advance width="446"/>
	<outline>
		<contour>
			<point x="226" y="-10" type="curve" smooth="yes"/>
			<point x="371" y="-9"/>
			<point x="428" y="64"/>
			<point x="428" y="174" type="curve" smooth="yes"/>
			<point x="428" y="236" type="line"/>
			<point x="263" y="236" type="line"/>
			<point x="263" y="180" type="line" smooth="yes"/>
			<point x="263" y="150"/>
			<point x="256" y="130"/>
			<point x="225" y="130" type="curve" smooth="yes"/>
			<point x="191" y="130"/>
			<point x="183" y="150"/>
			<point x="183" y="180" type="curve" smooth="yes"/>
			<point x="183" y="510" type="line" smooth="yes"/>
			<point x="183" y="560"/>
			<point x="194" y="574"/>
			<point x="225" y="574" type="curve" smooth="yes"/>
			<point x="252" y="574"/>
			<point x="263" y="561"/>
			<point x="263" y="511" type="curve" smooth="yes"/>
			<point x="263" y="453" type="line"/>
			<point x="428" y="453" type="line"/>
			<point x="428" y="500" type="line" smooth="yes"/>
			<point x="428" y="660"/>
			<point x="339" y="710"/>
			<point x="233" y="710" type="curve" smooth="yes"/>
			<point x="124" y="710"/>
			<point x="18" y="658"/>
			<point x="18" y="510" type="curve" smooth="yes"/>
			<point x="18" y="174" type="line" smooth="yes"/>
			<point x="18" y="64"/>
			<point x="76" y="-11"/>
		</contour>
	</outline>
</glyph>
<glyph name="K" format="2">
	<unicode hex="004B"/>
	<advance width="483"/>
	<outline>
		<contour>
			<point x="58" y="-1" type="curve" smooth="yes"/>
			<point x="143" y="0" type="line" smooth="yes"/>
			<point x="173" y="0"/>
			<point x="183" y="10"/>
			<point x="183" y="40" type="curve" smooth="yes"/>
			<point x="183" y="316" type="line"/>
			<point x="219" y="232"/>
			<point x="308" y="104"/>
			<point x="308" y="40" type="curve" smooth="yes"/>
			<point x="308" y="10"/>
			<point x="318" y="-1"/>
			<point x="348" y="-1" type="curve" smooth="yes"/>
			<point x="433" y="0" type="line" smooth="yes"/>
			<point x="463" y="0"/>
			<point x="473" y="10"/>
			<point x="473" y="40" type="curve" smooth="yes"/>
			<point x="473" y="121"/>
			<point x="333" y="301"/>
			<point x="333" y="372" type="curve" smooth="yes"/>
			<point x="333" y="448"/>
			<point x="463" y="604"/>
			<point x="463" y="660" type="curve" smooth="yes"/>
			<point x="463" y="690"/>
			<point x="453" y="700"/>
			<point x="423" y="700" type="curve" smooth="yes"/>
			<point x="338" y="700" type="line" smooth="yes"/>
			<point x="308" y="700"/>
			<point x="298" y="690"/>
			<point x="298" y="660" type="curve" smooth="yes"/>
			<point x="298" y="616"/>
			<point x="217" y="509"/>
			<point x="183" y="428" type="curve"/>
			<point x="183" y="660" type="line" smooth="yes"/>
			<point x="183" y="690"/>
			<point x="173" y="700"/>
			<point x="143" y="700" type="curve" smooth="yes"/>
			<point x="58" y="700" type="line" smooth="yes"/>
			<point x="28" y="700"/>
			<point x="18" y="690"/>
			<point x="18" y="660" type="curve" smooth="yes"/>
			<point x="18" y="40" type="line" smooth="yes"/>
			<point x="18" y="10"/>
			<point x="28" y="-1"/>
		</contour>
	</outline>
</glyph>
<glyph name="O" format="2">
	<unicode hex="004F"/>
	<advance width="446"/>
	<outline>
		<contour>
			<point x="226" y="-10" type="curve" smooth="yes"/>
			<point x="371" y="-9"/>
			<point x="428" y="64"/>
			<point x="428" y="174" type="curve" smooth="yes"/>
			<point x="428" y="490" type="line" smooth="yes"/>
			<point x="428" y="650"/>
			<point x="339" y="700"/>
			<point x="233" y="700" type="curve" smooth="yes"/>
			<point x="124" y="700"/>
			<point x="18" y="648"/>
			<point x="18" y="500" type="curve" smooth="yes"/>
			<point x="18" y="174" type="line" smooth="yes"/>
			<point x="18" y="64"/>
			<point x="76" y="-11"/>
		</contour>
		<contour>
			<point x="225" y="130" type="curve" smooth="yes"/>
			<point x="191" y="130"/>
			<point x="183" y="150"/>
			<point x="183" y="180" type="curve" smooth="yes"/>
			<point x="183" y="500" type="line" smooth="yes"/>
			<point x="183" y="550"/>
			<point x="194" y="564"/>
			<point x="225" y="564" type="curve" smooth="yes"/>
			<point x="252" y="564"/>
			<point x="263" y="551"/>
			<point x="263" y="501" type="curve" smooth="yes"/>
			<point x="263" y="180" type="line" smooth="yes"/>
			<point x="263" y="150"/>
			<point x="256" y="130"/>
		</contour>
	</outline>
</glyph>
<glyph name="V" format="2">
	<unicode hex="0056"/>
	<advance width="600"/>
	<outline>
		<contour>
			<point x="165" y="0" type="curve" smooth="yes"/>
			<point x="330" y="0" type="line" smooth="yes"/>
			<point x="356" y="0"/>
			<point x="364" y="11"/>
			<point x="370" y="40" type="curve" smooth="yes"/>
			<point x="464" y="483"/>
			<point x="491" y="637"/>
			<point x="491" y="663" type="curve" smooth="yes"/>
			<point x="491" y="683"/>
			<point x="481" y="700"/>
			<point x="459" y="700" type="curve" smooth="yes"/>
			<point x="356" y="700" type="line" smooth="yes"/>
			<point x="339" y="700"/>
			<point x="324" y="683"/>
			<point x="322" y="663" type="curve" smooth="yes"/>
			<point x="268" y="222" type="line" smooth="yes"/>
			<point x="266" y="205"/>
			<point x="264" y="195"/>
			<point x="257" y="195" type="curve" smooth="yes"/>
			<point x="249" y="195"/>
			<point x="246" y="205"/>
			<point x="244" y="221" type="curve" smooth="yes"/>
			<point x="194" y="666" type="line" smooth="yes"/>
			<point x="192" y="686"/>
			<point x="174" y="700"/>
			<point x="160" y="700" type="curve" smooth="yes"/>
			<point x="50" y="700" type="line" smooth="yes"/>
			<point x="20" y="700"/>
			<point x="10" y="687"/>
			<point x="10" y="670" type="curve" smooth="yes"/>
			<point x="10" y="641"/>
			<point x="30" y="568"/>
			<point x="125" y="40" type="curve" smooth="yes"/>
			<point x="130" y="10"/>
			<point x="139" y="0"/>
		</contour>
	</outline>
</glyph>
<glyph name="a" format="2">
	<unicode hex="0061"/>
	<advance width="439"/>
	<outline>
		<contour>
			<point x="173" y="-10" type="curve" smooth="yes"/>
			<point x="204" y="-10"/>
			<point x="230" y="-5"/>
			<point x="251" y="9" type="curve" smooth="yes"/>
			<point x="257" y="13"/>
			<point x="261" y="18"/>
			<point x="265" y="18" type="curve" smooth="yes"/>
			<point x="269" y="18"/>
			<point x="271" y="14"/>
			<point x="271" y="8" type="curve" smooth="yes"/>
			<point x="271" y="2"/>
			<point x="276" y="0"/>
			<point x="283" y="0" type="curve" smooth="yes"/>
			<point x="402" y="0" type="line" smooth="yes"/>
			<point x="415" y="0"/>
			<point x="419" y="6"/>
			<point x="419" y="21" type="curve" smooth="yes"/>
			<point x="419" y="386" type="line" smooth="yes"/>
			<point x="419" y="478"/>
			<point x="370" y="552"/>
			<point x="236" y="552" type="curve" smooth="yes"/>
			<point x="100" y="552"/>
			<point x="44" y="471"/>
			<point x="44" y="416" type="curve" smooth="yes"/>
			<point x="44" y="395"/>
			<point x="47" y="388"/>
			<point x="60" y="388" type="curve" smooth="yes"/>
			<point x="159" y="388" type="line" smooth="yes"/>
			<point x="169" y="388"/>
			<point x="171" y="393"/>
			<point x="171" y="399" type="curve" smooth="yes"/>
			<point x="171" y="410"/>
			<point x="177" y="419"/>
			<point x="205" y="419" type="curve" smooth="yes"/>
			<point x="248" y="419"/>
			<point x="261" y="380"/>
			<point x="261" y="367" type="curve" smooth="yes"/>
			<point x="261" y="356"/>
			<point x="259" y="346"/>
			<point x="248" y="346" type="curve" smooth="yes"/>
			<point x="233" y="346"/>
			<point x="230" y="353"/>
			<point x="194" y="353" type="curve" smooth="yes"/>
			<point x="98" y="353"/>
			<point x="20" y="264"/>
			<point x="20" y="179" type="curve" smooth="yes"/>
			<point x="20" y="94"/>
			<point x="54" y="-10"/>
		</contour>
		<contour>
			<point x="228" y="126" type="curve" smooth="yes"/>
			<point x="210" y="126"/>
			<point x="196" y="149"/>
			<point x="196" y="177" type="curve" smooth="yes"/>
			<point x="196" y="204"/>
			<point x="210" y="227"/>
			<point x="228" y="227" type="curve" smooth="yes"/>
			<point x="246" y="227"/>
			<point x="260" y="204"/>
			<point x="260" y="177" type="curve" smooth="yes"/>
			<point x="260" y="149"/>
			<point x="246" y="126"/>
		</contour>
	</outline>
</glyph>
<glyph name="b" format="2">
	<unicode hex="0062"/>
	<advance width="450"/>
	<outline>
		<contour>
			<point x="58" y="-1" type="curve" smooth="yes"/>
			<point x="156" y="0" type="line" smooth="yes"/>
			<point x="166" y="0"/>
			<point x="174" y="3"/>
			<point x="174" y="12" type="curve" smooth="yes"/>
			<point x="174" y="16"/>
			<point x="178" y="19"/>
			<point x="183" y="19" type="curve" smooth="yes"/>
			<point x="196" y="19"/>
			<point x="211" y="-10"/>
			<point x="238" y="-10" type="curve" smooth="yes"/>
			<point x="387" y="-10"/>
			<point x="430" y="107"/>
			<point x="430" y="297" type="curve" smooth="yes"/>
			<point x="430" y="437"/>
			<point x="379" y="540"/>
			<point x="266" y="540" type="curve" smooth="yes"/>
			<point x="226" y="540"/>
			<point x="207" y="530"/>
			<point x="197" y="530" type="curve" smooth="yes"/>
			<point x="188" y="530"/>
			<point x="183" y="533"/>
			<point x="183" y="545" type="curve"/>
			<point x="183" y="660" type="line" smooth="yes"/>
			<point x="183" y="690"/>
			<point x="173" y="700"/>
			<point x="143" y="700" type="curve" smooth="yes"/>
			<point x="58" y="700" type="line" smooth="yes"/>
			<point x="28" y="700"/>
			<point x="18" y="690"/>
			<point x="18" y="660" type="curve" smooth="yes"/>
			<point x="18" y="40" type="line" smooth="yes"/>
			<point x="18" y="10"/>
			<point x="28" y="-1"/>
		</contour>
		<contour>
			<point x="220" y="167" type="curve" smooth="yes"/>
			<point x="202" y="167"/>
			<point x="187" y="193"/>
			<point x="187" y="273" type="curve" smooth="yes"/>
			<point x="187" y="353"/>
			<point x="202" y="381"/>
			<point x="220" y="381" type="curve" smooth="yes"/>
			<point x="238" y="381"/>
			<point x="255" y="353"/>
			<point x="255" y="273" type="curve" smooth="yes"/>
			<point x="255" y="193"/>
			<point x="238" y="167"/>
		</contour>
	</outline>
</glyph>
<glyph name="c" format="2">
	<unicode hex="0063"/>
	<advance width="389"/>
	<outline>
		<contour>
			<point x="216" y="-10" type="curve" smooth="yes"/>
			<point x="304" y="-10"/>
			<point x="361" y="26"/>
			<point x="361" y="183" type="curve" smooth="yes"/>
			<point x="361" y="197"/>
			<point x="352" y="206"/>
			<point x="341" y="206" type="curve" smooth="yes"/>
			<point x="267" y="206" type="line" smooth="yes"/>
			<point x="256" y="206"/>
			<point x="249" y="192"/>
			<point x="249" y="176" type="curve" smooth="yes"/>
			<point x="249" y="160"/>
			<point x="241" y="124"/>
			<point x="223" y="124" type="curve" smooth="yes"/>
			<point x="206" y="124"/>
			<point x="183" y="153"/>
			<point x="183" y="274" type="curve" smooth="yes"/>
			<point x="183" y="408"/>
			<point x="200" y="425"/>
			<point x="219" y="425" type="curve" smooth="yes"/>
			<point x="239" y="425"/>
			<point x="244" y="411"/>
			<point x="244" y="391" type="curve" smooth="yes"/>
			<point x="244" y="377"/>
			<point x="256" y="371"/>
			<point x="272" y="371" type="curve" smooth="yes"/>
			<point x="286" y="371"/>
			<point x="318" y="372"/>
			<point x="337" y="371" type="curve" smooth="yes"/>
			<point x="356" y="370"/>
			<point x="369" y="370"/>
			<point x="369" y="410" type="curve" smooth="yes"/>
			<point x="369" y="480"/>
			<point x="334" y="540"/>
			<point x="236" y="540" type="curve" smooth="yes"/>
			<point x="178" y="540"/>
			<point x="23" y="516"/>
			<point x="23" y="261" type="curve" smooth="yes"/>
			<point x="23" y="86"/>
			<point x="98" y="-10"/>
		</contour>
	</outline>
</glyph>
<glyph name="d" format="2">
	<unicode hex="0064"/>
	<advance width="459"/>
	<outline>
		<contour>
			<point x="169" y="-10" type="curve" smooth="yes"/>
			<point x="212" y="-10"/>
			<point x="248" y="22"/>
			<point x="261" y="22" type="curve" smooth="yes"/>
			<point x="271" y="22"/>
			<point x="275" y="18"/>
			<point x="275" y="11" type="curve" smooth="yes"/>
			<point x="275" y="2"/>
			<point x="284" y="0"/>
			<point x="304" y="0" type="curve" smooth="yes"/>
			<point x="389" y="0" type="line" smooth="yes"/>
			<point x="419" y="0"/>
			<point x="429" y="10"/>
			<point x="429" y="40" type="curve" smooth="yes"/>
			<point x="429" y="660" type="line" smooth="yes"/>
			<point x="429" y="690"/>
			<point x="419" y="700"/>
			<point x="389" y="700" type="curve" smooth="yes"/>
			<point x="304" y="700" type="line" smooth="yes"/>
			<point x="274" y="700"/>
			<point x="264" y="690"/>
			<point x="264" y="660" type="curve" smooth="yes"/>
			<point x="264" y="560" type="line" smooth="yes"/>
			<point x="264" y="546"/>
			<point x="257" y="532"/>
			<point x="246" y="531" type="curve" smooth="yes"/>
			<point x="228" y="530"/>
			<point x="201" y="550"/>
			<point x="179" y="550" type="curve" smooth="yes"/>
			<point x="76" y="550"/>
			<point x="25" y="420"/>
			<point x="25" y="277" type="curve" smooth="yes"/>
			<point x="25" y="154"/>
			<point x="46" y="-10"/>
		</contour>
		<contour>
			<point x="227" y="168" type="curve" smooth="yes"/>
			<point x="206" y="168"/>
			<point x="189" y="215"/>
			<point x="189" y="273" type="curve" smooth="yes"/>
			<point x="189" y="331"/>
			<point x="206" y="378"/>
			<point x="227" y="378" type="curve" smooth="yes"/>
			<point x="248" y="378"/>
			<point x="265" y="331"/>
			<point x="265" y="273" type="curve" smooth="yes"/>
			<point x="265" y="215"/>
			<point x="248" y="168"/>
		</contour>
	</outline>
</glyph>
<glyph name="e" format="2">
	<unicode hex="0065"/>
	<advance width="466"/>
	<outline>
		<contour>
			<point x="266" y="-10" type="curve" smooth="yes"/>
			<point x="390" y="-10"/>
			<point x="435" y="90"/>
			<point x="435" y="153" type="curve" smooth="yes"/>
			<point x="435" y="166"/>
			<point x="423" y="175"/>
			<point x="413" y="175" type="curve" smooth="yes"/>
			<point x="324" y="175" type="line" smooth="yes"/>
			<point x="303" y="175"/>
			<point x="298" y="169"/>
			<point x="298" y="155" type="curve" smooth="yes"/>
			<point x="298" y="140"/>
			<point x="286" y="133"/>
			<point x="258" y="133" type="curve" smooth="yes"/>
			<point x="227" y="133"/>
			<point x="208" y="152"/>
			<point x="208" y="182" type="curve" smooth="yes"/>
			<point x="208" y="202"/>
			<point x="215" y="206"/>
			<point x="232" y="206" type="curve" smooth="yes"/>
			<point x="393" y="206" type="line" smooth="yes"/>
			<point x="431" y="206"/>
			<point x="446" y="216"/>
			<point x="446" y="307" type="curve" smooth="yes"/>
			<point x="446" y="428"/>
			<point x="379" y="544"/>
			<point x="234" y="544" type="curve" smooth="yes"/>
			<point x="119" y="544"/>
			<point x="23" y="446"/>
			<point x="23" y="262" type="curve" smooth="yes"/>
			<point x="23" y="108"/>
			<point x="93" y="-10"/>
		</contour>
		<contour>
			<point x="218" y="321" type="line" smooth="yes"/>
			<point x="207" y="321"/>
			<point x="200" y="325"/>
			<point x="200" y="339" type="curve" smooth="yes"/>
			<point x="200" y="396"/>
			<point x="217" y="416"/>
			<point x="237" y="416" type="curve" smooth="yes"/>
			<point x="257" y="416"/>
			<point x="277" y="391"/>
			<point x="277" y="340" type="curve" smooth="yes"/>
			<point x="277" y="331"/>
			<point x="268" y="321"/>
			<point x="258" y="321" type="curve" smooth="yes"/>
		</contour>
	</outline>
</glyph>
<glyph name="f" format="2">
	<unicode hex="0066"/>
	<advance width="302"/>
	<outline>
		<contour>
			<point x="91" y="-1" type="curve" smooth="yes"/>
			<point x="176" y="0" type="line" smooth="yes"/>
			<point x="206" y="0"/>
			<point x="216" y="10"/>
			<point x="216" y="40" type="curve" smooth="yes"/>
			<point x="216" y="323" type="line" smooth="yes"/>
			<point x="216" y="339"/>
			<point x="221" y="350"/>
			<point x="245" y="350" type="curve" smooth="yes"/>
			<point x="273" y="350"/>
			<point x="291" y="357"/>
			<point x="291" y="385" type="curve" smooth="yes"/>
			<point x="292" y="496" type="line" smooth="yes"/>
			<point x="292" y="507"/>
			<point x="286" y="515"/>
			<point x="272" y="515" type="curve" smooth="yes"/>
			<point x="233" y="515" type="line" smooth="yes"/>
			<point x="222" y="515"/>
			<point x="217" y="519"/>
			<point x="217" y="528" type="curve" smooth="yes"/>
			<point x="217" y="539" type="line" smooth="yes"/>
			<point x="217" y="554"/>
			<point x="222" y="566"/>
			<point x="242" y="566" type="curve" smooth="yes"/>
			<point x="256" y="566"/>
			<point x="265" y="557"/>
			<point x="274" y="557" type="curve" smooth="yes"/>
			<point x="286" y="557"/>
			<point x="291" y="563"/>
			<point x="291" y="572" type="curve" smooth="yes"/>
			<point x="291" y="660" type="line" smooth="yes"/>
			<point x="291" y="691"/>
			<point x="256" y="702"/>
			<point x="177" y="702" type="curve" smooth="yes"/>
			<point x="71" y="702"/>
			<point x="51" y="630"/>
			<point x="51" y="540" type="curve" smooth="yes"/>
			<point x="51" y="523"/>
			<point x="44" y="518"/>
			<point x="33" y="518" type="curve" smooth="yes"/>
			<point x="19" y="518"/>
			<point x="13" y="510"/>
			<point x="13" y="498" type="curve" smooth="yes"/>
			<point x="13" y="376" type="line" smooth="yes"/>
			<point x="13" y="362"/>
			<point x="15" y="352"/>
			<point x="30" y="352" type="curve" smooth="yes"/>
			<point x="45" y="352"/>
			<point x="51" y="347"/>
			<point x="51" y="334" type="curve" smooth="yes"/>
			<point x="51" y="40" type="line" smooth="yes"/>
			<point x="51" y="10"/>
			<point x="61" y="-1"/>
		</contour>
	</outline>
</glyph>
<glyph name="g" format="2">
	<unicode hex="0067"/>
	<advance width="449"/>
	<outline>
		<contour>
			<point x="113" y="-1" type="curve" smooth="yes"/>
			<point x="148" y="-1"/>
			<point x="226" y="-1"/>
			<point x="261" y="-1" type="curve" smooth="yes"/>
			<point x="411" y="-1"/>
			<point x="429" y="50"/>
			<point x="429" y="80" type="curve" smooth="yes"/>
			<point x="429" y="540" type="line" smooth="yes"/>
			<point x="429" y="560"/>
			<point x="419" y="570"/>
			<point x="389" y="570" type="curve" smooth="yes"/>
			<point x="304" y="570" type="line" smooth="yes"/>
			<point x="274" y="570"/>
			<point x="264" y="560"/>
			<point x="264" y="540" type="curve" smooth="yes"/>
			<point x="264" y="526"/>
			<point x="257" y="512"/>
			<point x="246" y="511" type="curve" smooth="yes"/>
			<point x="228" y="510"/>
			<point x="201" y="530"/>
			<point x="179" y="530" type="curve" smooth="yes"/>
			<point x="76" y="530"/>
			<point x="25" y="420"/>
			<point x="25" y="277" type="curve" smooth="yes"/>
			<point x="25" y="204"/>
			<point x="46" y="90"/>
			<point x="169" y="90" type="curve" smooth="yes"/>
			<point x="212" y="90"/>
			<point x="248" y="122"/>
			<point x="261" y="122" type="curve" smooth="yes"/>
			<point x="266" y="122"/>
			<point x="269" y="107"/>
			<point x="272" y="90" type="curve" smooth="yes"/>
			<point x="274" y="73"/>
			<point x="154" y="67"/>
			<point x="102" y="53" type="curve" smooth="yes"/>
			<point x="66" y="43"/>
			<point x="93" y="-1"/>
		</contour>
		<contour>
			<point x="227" y="218" type="curve" smooth="yes"/>
			<point x="206" y="218"/>
			<point x="189" y="235"/>
			<point x="189" y="273" type="curve" smooth="yes"/>
			<point x="189" y="331"/>
			<point x="206" y="378"/>
			<point x="227" y="378" type="curve" smooth="yes"/>
			<point x="248" y="378"/>
			<point x="265" y="331"/>
			<point x="265" y="273" type="curve" smooth="yes"/>
			<point x="265" y="235"/>
			<point x="248" y="218"/>
		</contour>
	</outline>
</glyph>
<glyph name="h" format="2">
	<unicode hex="0068"/>
	<advance width="433"/>
	<outline>
		<contour>
			<point x="58" y="-1" type="curve" smooth="yes"/>
			<point x="143" y="0" type="line" smooth="yes"/>
			<point x="173" y="0"/>
			<point x="183" y="10"/>
			<point x="183" y="40" type="curve" smooth="yes"/>
			<point x="183" y="363" type="line" smooth="yes"/>
			<point x="183" y="378"/>
			<point x="193" y="393"/>
			<point x="216" y="393" type="curve" smooth="yes"/>
			<point x="239" y="393"/>
			<point x="248" y="378"/>
			<point x="248" y="363" type="curve" smooth="yes"/>
			<point x="248" y="40" type="line" smooth="yes"/>
			<point x="248" y="10"/>
			<point x="258" y="-1"/>
			<point x="288" y="-1" type="curve" smooth="yes"/>
			<point x="373" y="0" type="line" smooth="yes"/>
			<point x="403" y="0"/>
			<point x="413" y="10"/>
			<point x="413" y="40" type="curve" smooth="yes"/>
			<point x="413" y="369" type="line" smooth="yes"/>
			<point x="413" y="433"/>
			<point x="398" y="540"/>
			<point x="288" y="540" type="curve" smooth="yes"/>
			<point x="240" y="540"/>
			<point x="216" y="521"/>
			<point x="202" y="521" type="curve" smooth="yes"/>
			<point x="190" y="521"/>
			<point x="183" y="526"/>
			<point x="183" y="550" type="curve" smooth="yes"/>
			<point x="183" y="660" type="line" smooth="yes"/>
			<point x="183" y="690"/>
			<point x="173" y="700"/>
			<point x="143" y="700" type="curve" smooth="yes"/>
			<point x="58" y="700" type="line" smooth="yes"/>
			<point x="28" y="700"/>
			<point x="18" y="690"/>
			<point x="18" y="660" type="curve" smooth="yes"/>
			<point x="18" y="40" type="line" smooth="yes"/>
			<point x="18" y="10"/>
			<point x="28" y="-1"/>
		</contour>
	</outline>
</glyph>
<glyph name="i" format="2">
	<unicode hex="0069"/>
	<advance width="201"/>
	<outline>
		<contour>
			<point x="58" y="-1" type="curve" smooth="yes"/>
			<point x="143" y="0" type="line" smooth="yes"/>
			<point x="173" y="0"/>
			<point x="183" y="10"/>
			<point x="183" y="40" type="curve" smooth="yes"/>
			<point x="183" y="490" type="line" smooth="yes"/>
			<point x="183" y="520"/>
			<point x="173" y="530"/>
			<point x="143" y="530" type="curve" smooth="yes"/>
			<point x="58" y="530" type="line" smooth="yes"/>
			<point x="28" y="530"/>
			<point x="18" y="520"/>
			<point x="18" y="490" type="curve" smooth="yes"/>
			<point x="18" y="40" type="line" smooth="yes"/>
			<point x="18" y="10"/>
			<point x="28" y="-1"/>
		</contour>
		<contour>
			<point x="58" y="574" type="curve" smooth="yes"/>
			<point x="143" y="575" type="line" smooth="yes"/>
			<point x="173" y="575"/>
			<point x="183" y="585"/>
			<point x="183" y="615" type="curve" smooth="yes"/>
			<point x="183" y="663" type="line" smooth="yes"/>
			<point x="183" y="693"/>
			<point x="173" y="703"/>
			<point x="143" y="703" type="curve" smooth="yes"/>
			<point x="58" y="703" type="line" smooth="yes"/>
			<point x="28" y="703"/>
			<point x="18" y="693"/>
			<point x="18" y="663" type="curve" smooth="yes"/>
			<point x="18" y="615" type="line" smooth="yes"/>
			<point x="18" y="585"/>
			<point x="28" y="574"/>
		</contour>
	</outline>
</glyph>
<glyph name="j" format="2">
	<unicode hex="006A"/>
	<advance width="253"/>
	<outline>
		<contour>
			<point x="104" y="0" type="curve" smooth="yes"/>
			<point x="193" y="0"/>
			<point x="233" y="64"/>
			<point x="233" y="173" type="curve" smooth="yes"/>
			<point x="233" y="490" type="line" smooth="yes"/>
			<point x="233" y="520"/>
			<point x="223" y="530"/>
			<point x="193" y="530" type="curve" smooth="yes"/>
			<point x="108" y="530" type="line" smooth="yes"/>
			<point x="78" y="530"/>
			<point x="68" y="520"/>
			<point x="68" y="490" type="curve" smooth="yes"/>
			<point x="68" y="186" type="line" smooth="yes"/>
			<point x="68" y="170"/>
			<point x="60" y="164"/>
			<point x="44" y="164" type="curve" smooth="yes"/>
			<point x="22" y="164"/>
			<point x="15" y="156"/>
			<point x="15" y="142" type="curve" smooth="yes"/>
			<point x="15" y="51" type="line" smooth="yes"/>
			<point x="15" y="29"/>
			<point x="38" y="0"/>
		</contour>
		<contour>
			<point x="108" y="574" type="curve" smooth="yes"/>
			<point x="193" y="575" type="line" smooth="yes"/>
			<point x="223" y="575"/>
			<point x="233" y="585"/>
			<point x="233" y="615" type="curve" smooth="yes"/>
			<point x="233" y="663" type="line" smooth="yes"/>
			<point x="233" y="693"/>
			<point x="223" y="703"/>
			<point x="193" y="703" type="curve" smooth="yes"/>
			<point x="108" y="703" type="line" smooth="yes"/>
			<point x="78" y="703"/>
			<point x="68" y="693"/>
			<point x="68" y="663" type="curve" smooth="yes"/>
			<point x="68" y="615" type="line" smooth="yes"/>
			<point x="68" y="585"/>
			<point x="78" y="574"/>
		</contour>
	</outline>
</glyph>
<glyph name="k" format="2">
	<unicode hex="006B"/>
	<advance width="427"/>
	<outline>
		<contour>
			<point x="58" y="-1" type="curve" smooth="yes"/>
			<point x="143" y="0" type="line" smooth="yes"/>
			<point x="173" y="0"/>
			<point x="183" y="10"/>
			<point x="183" y="40" type="curve" smooth="yes"/>
			<point x="183" y="192" type="line"/>
			<point x="248" y="40" type="line" smooth="yes"/>
			<point x="261" y="10"/>
			<point x="258" y="-1"/>
			<point x="288" y="-1" type="curve" smooth="yes"/>
			<point x="373" y="0" type="line" smooth="yes"/>
			<point x="403" y="0"/>
			<point x="426" y="10"/>
			<point x="413" y="40" type="curve" smooth="yes"/>
			<point x="313" y="276" type="line"/>
			<point x="403" y="500" type="line" smooth="yes"/>
			<point x="415" y="530"/>
			<point x="393" y="540"/>
			<point x="363" y="540" type="curve" smooth="yes"/>
			<point x="278" y="540" type="line" smooth="yes"/>
			<point x="248" y="540"/>
			<point x="250" y="530"/>
			<point x="238" y="500" type="curve" smooth="yes"/>
			<point x="183" y="362" type="line"/>
			<point x="183" y="660" type="line" smooth="yes"/>
			<point x="183" y="690"/>
			<point x="173" y="700"/>
			<point x="143" y="700" type="curve" smooth="yes"/>
			<point x="58" y="700" type="line" smooth="yes"/>
			<point x="28" y="700"/>
			<point x="18" y="690"/>
			<point x="18" y="660" type="curve" smooth="yes"/>
			<point x="18" y="40" type="line" smooth="yes"/>
			<point x="18" y="10"/>
			<point x="28" y="-1"/>
		</contour>
	</outline>
</glyph>
<glyph name="m" format="2">
	<unicode hex="006D"/>
	<advance width="651"/>
	<outline>
		<contour>
			<point x="58" y="0" type="curve" smooth="yes"/>
			<point x="143" y="1" type="line" smooth="yes"/>
			<point x="173" y="1"/>
			<point x="183" y="11"/>
			<point x="183" y="41" type="curve" smooth="yes"/>
			<point x="183" y="331" type="line" smooth="yes"/>
			<point x="183" y="367"/>
			<point x="188" y="379"/>
			<point x="210" y="379" type="curve" smooth="yes"/>
			<point x="240" y="379"/>
			<point x="248" y="364"/>
			<point x="248" y="310" type="curve" smooth="yes"/>
			<point x="248" y="41" type="line" smooth="yes"/>
			<point x="248" y="11"/>
			<point x="258" y="0"/>
			<point x="288" y="0" type="curve" smooth="yes"/>
			<point x="373" y="1" type="line" smooth="yes"/>
			<point x="403" y="1"/>
			<point x="413" y="11"/>
			<point x="413" y="41" type="curve" smooth="yes"/>
			<point x="413" y="375" type="line"/>
			<point x="419" y="377"/>
			<point x="425" y="379"/>
			<point x="430" y="379" type="curve" smooth="yes"/>
			<point x="460" y="379"/>
			<point x="468" y="364"/>
			<point x="468" y="310" type="curve" smooth="yes"/>
			<point x="468" y="41" type="line" smooth="yes"/>
			<point x="468" y="11"/>
			<point x="478" y="0"/>
			<point x="508" y="0" type="curve" smooth="yes"/>
			<point x="593" y="1" type="line" smooth="yes"/>
			<point x="623" y="1"/>
			<point x="633" y="11"/>
			<point x="633" y="41" type="curve" smooth="yes"/>
			<point x="633" y="390" type="line" smooth="yes"/>
			<point x="633" y="500"/>
			<point x="592" y="540"/>
			<point x="504" y="540" type="curve" smooth="yes"/>
			<point x="456" y="540"/>
			<point x="428" y="491"/>
			<point x="411" y="486" type="curve" smooth="yes"/>
			<point x="397" y="482" type="line"/>
			<point x="378" y="523"/>
			<point x="341" y="540"/>
			<point x="284" y="540" type="curve" smooth="yes"/>
			<point x="236" y="540"/>
			<point x="208" y="486"/>
			<point x="191" y="486" type="curve" smooth="yes"/>
			<point x="183" y="486" type="line"/>
			<point x="183" y="500" type="line" smooth="yes"/>
			<point x="183" y="530"/>
			<point x="173" y="540"/>
			<point x="143" y="540" type="curve" smooth="yes"/>
			<point x="58" y="540" type="line" smooth="yes"/>
			<point x="28" y="540"/>
			<point x="18" y="530"/>
			<point x="18" y="500" type="curve" smooth="yes"/>
			<point x="18" y="41" type="line" smooth="yes"/>
			<point x="18" y="11"/>
			<point x="28" y="0"/>
		</contour>
	</outline>
</glyph>
<glyph name="n" format="2">
	<unicode hex="006E"/>
	<advance width="431"/>
	<outline>
		<contour>
			<point x="58" y="0" type="curve" smooth="yes"/>
			<point x="143" y="1" type="line" smooth="yes"/>
			<point x="173" y="1"/>
			<point x="183" y="11"/>
			<point x="183" y="41" type="curve" smooth="yes"/>
			<point x="183" y="331" type="line" smooth="yes"/>
			<point x="183" y="367"/>
			<point x="188" y="379"/>
			<point x="210" y="379" type="curve" smooth="yes"/>
			<point x="240" y="379"/>
			<point x="248" y="364"/>
			<point x="248" y="310" type="curve" smooth="yes"/>
			<point x="248" y="41" type="line" smooth="yes"/>
			<point x="248" y="11"/>
			<point x="258" y="0"/>
			<point x="288" y="0" type="curve" smooth="yes"/>
			<point x="373" y="1" type="line" smooth="yes"/>
			<point x="403" y="1"/>
			<point x="413" y="11"/>
			<point x="413" y="41" type="curve" smooth="yes"/>
			<point x="413" y="390" type="line" smooth="yes"/>
			<point x="413" y="500"/>
			<point x="372" y="540"/>
			<point x="284" y="540" type="curve" smooth="yes"/>
			<point x="236" y="540"/>
			<point x="208" y="486"/>
			<point x="191" y="486" type="curve" smooth="yes"/>
			<point x="183" y="486" type="line"/>
			<point x="183" y="500" type="line" smooth="yes"/>
			<point x="183" y="530"/>
			<point x="173" y="540"/>
			<point x="143" y="540" type="curve" smooth="yes"/>
			<point x="58" y="540" type="line" smooth="yes"/>
			<point x="28" y="540"/>
			<point x="18" y="530"/>
			<point x="18" y="500" type="curve" smooth="yes"/>
			<point x="18" y="41" type="line" smooth="yes"/>
			<point x="18" y="11"/>
			<point x="28" y="0"/>
		</contour>
	</outline>
</glyph>
<glyph name="o" format="2">
	<unicode hex="006F"/>
	<advance width="436"/>
	<outline>
		<contour>
			<point x="218" y="-22" type="curve" smooth="yes"/>
			<point x="332" y="-22"/>
			<point x="424" y="58"/>
			<point x="424" y="269" type="curve" smooth="yes"/>
			<point x="424" y="479"/>
			<point x="332" y="559"/>
			<point x="218" y="559" type="curve" smooth="yes"/>
			<point x="104" y="559"/>
			<point x="12" y="479"/>
			<point x="12" y="269" type="curve" smooth="yes"/>
			<point x="12" y="58"/>
			<point x="104" y="-22"/>
		</contour>
		<contour>
			<point x="218" y="155" type="curve" smooth="yes"/>
			<point x="189" y="155"/>
			<point x="176" y="181"/>
			<point x="176" y="267" type="curve" smooth="yes"/>
			<point x="176" y="353"/>
			<point x="189" y="388"/>
			<point x="218" y="388" type="curve" smooth="yes"/>
			<point x="248" y="388"/>
			<point x="260" y="353"/>
			<point x="260" y="267" type="curve" smooth="yes"/>
			<point x="260" y="181"/>
			<point x="248" y="155"/>
		</contour>
	</outline>
</glyph>
<glyph name="p" format="2">
	<unicode hex="0070"/>
	<advance width="433"/>
	<outline>
		<contour>
			<point x="58" y="-91" type="curve" smooth="yes"/>
			<point x="143" y="-90" type="line" smooth="yes"/>
			<point x="173" y="-90"/>
			<point x="183" y="-80"/>
			<point x="183" y="-50" type="curve" smooth="yes"/>
			<point x="183" y="43" type="line"/>
			<point x="197" y="12"/>
			<point x="223" y="0"/>
			<point x="257" y="0" type="curve" smooth="yes"/>
			<point x="311" y="0"/>
			<point x="421" y="8"/>
			<point x="421" y="299" type="curve" smooth="yes"/>
			<point x="421" y="509"/>
			<point x="328" y="540"/>
			<point x="274" y="540" type="curve" smooth="yes"/>
			<point x="240" y="540"/>
			<point x="204" y="513"/>
			<point x="183" y="464" type="curve"/>
			<point x="183" y="490" type="line" smooth="yes"/>
			<point x="183" y="520"/>
			<point x="173" y="530"/>
			<point x="143" y="530" type="curve" smooth="yes"/>
			<point x="58" y="530" type="line" smooth="yes"/>
			<point x="28" y="530"/>
			<point x="18" y="520"/>
			<point x="18" y="490" type="curve" smooth="yes"/>
			<point x="18" y="-50" type="line" smooth="yes"/>
			<point x="18" y="-80"/>
			<point x="28" y="-91"/>
		</contour>
		<contour>
			<point x="216" y="164" type="curve" smooth="yes"/>
			<point x="187" y="164"/>
			<point x="184" y="210"/>
			<point x="184" y="275" type="curve" smooth="yes"/>
			<point x="184" y="322"/>
			<point x="187" y="367"/>
			<point x="216" y="367" type="curve" smooth="yes"/>
			<point x="246" y="367"/>
			<point x="248" y="322"/>
			<point x="248" y="275" type="curve" smooth="yes"/>
			<point x="248" y="210"/>
			<point x="246" y="164"/>
		</contour>
	</outline>
</glyph>
<glyph name="q" format="2">
	<unicode hex="0071"/>
	<advance width="433"/>
	<outline>
		<contour>
			<point x="290" y="-90" type="curve" smooth="yes"/>
			<point x="375" y="-91" type="line" smooth="yes"/>
			<point x="405" y="-91"/>
			<point x="415" y="-80"/>
			<point x="415" y="-50" type="curve" smooth="yes"/>
			<point x="415" y="490" type="line" smooth="yes"/>
			<point x="415" y="520"/>
			<point x="405" y="530"/>
			<point x="375" y="530" type="curve" smooth="yes"/>
			<point x="290" y="530" type="line" smooth="yes"/>
			<point x="260" y="530"/>
			<point x="250" y="520"/>
			<point x="250" y="490" type="curve" smooth="yes"/>
			<point x="250" y="464" type="line"/>
			<point x="229" y="513"/>
			<point x="193" y="540"/>
			<point x="159" y="540" type="curve" smooth="yes"/>
			<point x="105" y="540"/>
			<point x="12" y="509"/>
			<point x="12" y="299" type="curve" smooth="yes"/>
			<point x="12" y="8"/>
			<point x="122" y="0"/>
			<point x="176" y="0" type="curve" smooth="yes"/>
			<point x="210" y="0"/>
			<point x="236" y="12"/>
			<point x="250" y="43" type="curve"/>
			<point x="250" y="-50" type="line" smooth="yes"/>
			<point x="250" y="-80"/>
			<point x="260" y="-90"/>
		</contour>
		<contour>
			<point x="217" y="164" type="curve" smooth="yes"/>
			<point x="187" y="164"/>
			<point x="185" y="210"/>
			<point x="185" y="275" type="curve" smooth="yes"/>
			<point x="185" y="322"/>
			<point x="187" y="367"/>
			<point x="217" y="367" type="curve" smooth="yes"/>
			<point x="246" y="367"/>
			<point x="249" y="322"/>
			<point x="249" y="275" type="curve" smooth="yes"/>
			<point x="249" y="210"/>
			<point x="246" y="164"/>
		</contour>
	</outline>
</glyph>
<glyph name="r" format="2">
	<unicode hex="0072"/>
	<advance width="305"/>
	<outline>
		<contour>
			<point x="58" y="-1" type="curve" smooth="yes"/>
			<point x="143" y="0" type="line" smooth="yes"/>
			<point x="173" y="0"/>
			<point x="183" y="10"/>
			<point x="183" y="40" type="curve" smooth="yes"/>
			<point x="183" y="294" type="line" smooth="yes"/>
			<point x="183" y="338"/>
			<point x="210" y="347"/>
			<point x="229" y="347" type="curve" smooth="yes"/>
			<point x="246" y="347"/>
			<point x="256" y="338"/>
			<point x="268" y="338" type="curve" smooth="yes"/>
			<point x="285" y="338"/>
			<point x="295" y="354"/>
			<point x="295" y="374" type="curve" smooth="yes"/>
			<point x="295" y="510" type="line" smooth="yes"/>
			<point x="295" y="524"/>
			<point x="286" y="530"/>
			<point x="265" y="530" type="curve" smooth="yes"/>
			<point x="229" y="530"/>
			<point x="219" y="486"/>
			<point x="198" y="486" type="curve" smooth="yes"/>
			<point x="188" y="486"/>
			<point x="183" y="490"/>
			<point x="183" y="500" type="curve" smooth="yes"/>
			<point x="183" y="527"/>
			<point x="173" y="530"/>
			<point x="143" y="530" type="curve" smooth="yes"/>
			<point x="58" y="530" type="line" smooth="yes"/>
			<point x="28" y="530"/>
			<point x="18" y="520"/>
			<point x="18" y="490" type="curve" smooth="yes"/>
			<point x="18" y="40" type="line" smooth="yes"/>
			<point x="18" y="10"/>
			<point x="28" y="-1"/>
		</contour>
	</outline>
</glyph>
<glyph name="s" format="2">
	<unicode hex="0073"/>
	<advance width="390"/>
	<outline>
		<contour>
			<point x="187" y="-10" type="curve" smooth="yes"/>
			<point x="323" y="-10"/>
			<point x="371" y="74"/>
			<point x="371" y="180" type="curve" smooth="yes"/>
			<point x="371" y="326"/>
			<point x="190" y="333"/>
			<point x="190" y="387" type="curve" smooth="yes"/>
			<point x="190" y="401"/>
			<point x="198" y="411"/>
			<point x="212" y="411" type="curve" smooth="yes"/>
			<point x="226" y="411"/>
			<point x="237" y="406"/>
			<point x="237" y="387" type="curve" smooth="yes"/>
			<point x="237" y="371"/>
			<point x="243" y="369"/>
			<point x="256" y="369" type="curve" smooth="yes"/>
			<point x="361" y="369" type="line" smooth="yes"/>
			<point x="378" y="369"/>
			<point x="376" y="379"/>
			<point x="376" y="394" type="curve" smooth="yes"/>
			<point x="376" y="442"/>
			<point x="320" y="540"/>
			<point x="199" y="540" type="curve" smooth="yes"/>
			<point x="132" y="540"/>
			<point x="22" y="473"/>
			<point x="22" y="380" type="curve" smooth="yes"/>
			<point x="22" y="265"/>
			<point x="207" y="214"/>
			<point x="207" y="181" type="curve" smooth="yes"/>
			<point x="207" y="167"/>
			<point x="199" y="159"/>
			<point x="186" y="159" type="curve" smooth="yes"/>
			<point x="174" y="159"/>
			<point x="161" y="163"/>
			<point x="161" y="179" type="curve" smooth="yes"/>
			<point x="161" y="194"/>
			<point x="153" y="200"/>
			<point x="139" y="200" type="curve" smooth="yes"/>
			<point x="45" y="200" type="line" smooth="yes"/>
			<point x="22" y="200"/>
			<point x="14" y="186"/>
			<point x="14" y="163" type="curve" smooth="yes"/>
			<point x="14" y="113"/>
			<point x="70" y="-10"/>
		</contour>
	</outline>
</glyph>
<glyph name="t" format="2">
	<unicode hex="0074"/>
	<advance width="282"/>
	<outline>
		<contour>
			<point x="151" y="-1" type="curve" smooth="yes"/>
			<point x="229" y="0" type="line" smooth="yes"/>
			<point x="259" y="0"/>
			<point x="269" y="10"/>
			<point x="269" y="40" type="curve" smooth="yes"/>
			<point x="269" y="125" type="line" smooth="yes"/>
			<point x="269" y="143"/>
			<point x="260" y="151"/>
			<point x="245" y="151" type="curve" smooth="yes"/>
			<point x="226" y="151"/>
			<point x="216" y="155"/>
			<point x="216" y="176" type="curve" smooth="yes"/>
			<point x="216" y="323" type="line" smooth="yes"/>
			<point x="216" y="339"/>
			<point x="221" y="350"/>
			<point x="235" y="350" type="curve" smooth="yes"/>
			<point x="251" y="350"/>
			<point x="269" y="357"/>
			<point x="269" y="385" type="curve" smooth="yes"/>
			<point x="270" y="496" type="line" smooth="yes"/>
			<point x="270" y="507"/>
			<point x="264" y="515"/>
			<point x="250" y="515" type="curve" smooth="yes"/>
			<point x="233" y="515" type="line" smooth="yes"/>
			<point x="222" y="515"/>
			<point x="217" y="519"/>
			<point x="217" y="528" type="curve" smooth="yes"/>
			<point x="217" y="617" type="line" smooth="yes"/>
			<point x="217" y="640"/>
			<point x="210" y="650"/>
			<point x="186" y="650" type="curve" smooth="yes"/>
			<point x="77" y="650" type="line" smooth="yes"/>
			<point x="54" y="650"/>
			<point x="51" y="642"/>
			<point x="51" y="622" type="curve" smooth="yes"/>
			<point x="51" y="540" type="line" smooth="yes"/>
			<point x="51" y="523"/>
			<point x="44" y="518"/>
			<point x="33" y="518" type="curve" smooth="yes"/>
			<point x="19" y="518"/>
			<point x="13" y="510"/>
			<point x="13" y="498" type="curve" smooth="yes"/>
			<point x="13" y="376" type="line" smooth="yes"/>
			<point x="13" y="362"/>
			<point x="15" y="352"/>
			<point x="30" y="352" type="curve" smooth="yes"/>
			<point x="45" y="352"/>
			<point x="51" y="347"/>
			<point x="51" y="334" type="curve" smooth="yes"/>
			<point x="51" y="120" type="line" smooth="yes"/>
			<point x="51" y="40"/>
			<point x="81" y="-2"/>
		</contour>
	</outline>
</glyph>
<glyph name="u" format="2">
	<unicode hex="0075"/>
	<advance width="421"/>
	<outline>
		<contour>
			<point x="143" y="-10" type="curve" smooth="yes"/>
			<point x="191" y="-10"/>
			<point x="219" y="36"/>
			<point x="236" y="36" type="curve" smooth="yes"/>
			<point x="244" y="36" type="line"/>
			<point x="244" y="22" type="line" smooth="yes"/>
			<point x="244" y="7"/>
			<point x="254" y="0"/>
			<point x="284" y="0" type="curve" smooth="yes"/>
			<point x="369" y="0" type="line" smooth="yes"/>
			<point x="399" y="0"/>
			<point x="409" y="10"/>
			<point x="409" y="40" type="curve" smooth="yes"/>
			<point x="409" y="490" type="line" smooth="yes"/>
			<point x="409" y="520"/>
			<point x="399" y="530"/>
			<point x="369" y="530" type="curve" smooth="yes"/>
			<point x="284" y="530" type="line" smooth="yes"/>
			<point x="254" y="530"/>
			<point x="244" y="520"/>
			<point x="244" y="490" type="curve" smooth="yes"/>
			<point x="244" y="179" type="line" smooth="yes"/>
			<point x="244" y="143"/>
			<point x="239" y="131"/>
			<point x="217" y="131" type="curve" smooth="yes"/>
			<point x="187" y="131"/>
			<point x="179" y="146"/>
			<point x="179" y="179" type="curve" smooth="yes"/>
			<point x="179" y="490" type="line" smooth="yes"/>
			<point x="179" y="520"/>
			<point x="169" y="530"/>
			<point x="139" y="530" type="curve" smooth="yes"/>
			<point x="54" y="530" type="line" smooth="yes"/>
			<point x="24" y="530"/>
			<point x="14" y="520"/>
			<point x="14" y="490" type="curve" smooth="yes"/>
			<point x="14" y="150" type="line" smooth="yes"/>
			<point x="14" y="40"/>
			<point x="55" y="-10"/>
		</contour>
	</outline>
</glyph>
<glyph name="v" format="2">
	<unicode hex="0076"/>
	<advance width="413"/>
	<outline>
		<contour>
			<point x="153" y="0" type="curve" smooth="yes"/>
			<point x="263" y="0" type="line" smooth="yes"/>
			<point x="283" y="0"/>
			<point x="298" y="28"/>
			<point x="302" y="48" type="curve" smooth="yes"/>
			<point x="334" y="201"/>
			<point x="399" y="434"/>
			<point x="399" y="501" type="curve" smooth="yes"/>
			<point x="399" y="517"/>
			<point x="386" y="530"/>
			<point x="370" y="530" type="curve" smooth="yes"/>
			<point x="263" y="530" type="line" smooth="yes"/>
			<point x="244" y="530"/>
			<point x="231" y="514"/>
			<point x="230" y="499" type="curve" smooth="yes"/>
			<point x="229" y="482"/>
			<point x="223" y="350"/>
			<point x="214" y="295" type="curve" smooth="yes"/>
			<point x="212" y="283"/>
			<point x="211" y="273"/>
			<point x="205" y="273" type="curve" smooth="yes"/>
			<point x="199" y="273"/>
			<point x="198" y="284"/>
			<point x="196" y="295" type="curve" smooth="yes"/>
			<point x="180" y="385"/>
			<point x="181" y="487"/>
			<point x="182" y="502" type="curve" smooth="yes"/>
			<point x="183" y="517"/>
			<point x="164" y="530"/>
			<point x="150" y="530" type="curve" smooth="yes"/>
			<point x="44" y="530" type="line" smooth="yes"/>
			<point x="19" y="530"/>
			<point x="14" y="514"/>
			<point x="14" y="496" type="curve" smooth="yes"/>
			<point x="14" y="467"/>
			<point x="74" y="198"/>
			<point x="104" y="49" type="curve" smooth="yes"/>
			<point x="112" y="11"/>
			<point x="130" y="0"/>
		</contour>
	</outline>
</glyph>
<glyph name="w" format="2">
	<unicode hex="0077"/>
	<advance width="642"/>
	<outline>
		<contour>
			<point x="153" y="0" type="curve" smooth="yes"/>
			<point x="263" y="0" type="line" smooth="yes"/>
			<point x="283" y="0"/>
			<point x="288" y="8"/>
			<point x="292" y="28" type="curve" smooth="yes"/>
			<point x="297" y="52"/>
			<point x="292" y="133"/>
			<point x="313" y="133" type="curve" smooth="yes"/>
			<point x="325" y="133"/>
			<point x="331" y="82"/>
			<point x="346" y="39" type="curve" smooth="yes"/>
			<point x="352" y="22"/>
			<point x="359" y="0"/>
			<point x="373" y="0" type="curve" smooth="yes"/>
			<point x="491" y="0" type="line" smooth="yes"/>
			<point x="534" y="0"/>
			<point x="591" y="346"/>
			<point x="627" y="488" type="curve" smooth="yes"/>
			<point x="632" y="508"/>
			<point x="619" y="530"/>
			<point x="585" y="530" type="curve" smooth="yes"/>
			<point x="496" y="530" type="line" smooth="yes"/>
			<point x="489" y="530"/>
			<point x="473" y="534"/>
			<point x="463" y="508" type="curve" smooth="yes"/>
			<point x="443" y="457"/>
			<point x="443" y="298"/>
			<point x="424" y="298" type="curve" smooth="yes"/>
			<point x="410" y="298"/>
			<point x="399" y="487"/>
			<point x="399" y="501" type="curve" smooth="yes"/>
			<point x="399" y="517"/>
			<point x="386" y="530"/>
			<point x="370" y="530" type="curve" smooth="yes"/>
			<point x="263" y="530" type="line" smooth="yes"/>
			<point x="244" y="530"/>
			<point x="231" y="514"/>
			<point x="230" y="499" type="curve" smooth="yes"/>
			<point x="229" y="482"/>
			<point x="243" y="350"/>
			<point x="234" y="295" type="curve" smooth="yes"/>
			<point x="232" y="283"/>
			<point x="231" y="273"/>
			<point x="225" y="273" type="curve" smooth="yes"/>
			<point x="219" y="273"/>
			<point x="218" y="284"/>
			<point x="216" y="295" type="curve" smooth="yes"/>
			<point x="200" y="385"/>
			<point x="181" y="487"/>
			<point x="182" y="502" type="curve" smooth="yes"/>
			<point x="183" y="517"/>
			<point x="164" y="530"/>
			<point x="150" y="530" type="curve" smooth="yes"/>
			<point x="44" y="530" type="line" smooth="yes"/>
			<point x="19" y="530"/>
			<point x="14" y="514"/>
			<point x="14" y="496" type="curve" smooth="yes"/>
			<point x="14" y="467"/>
			<point x="74" y="198"/>
			<point x="104" y="49" type="curve" smooth="yes"/>
			<point x="112" y="11"/>
			<point x="130" y="0"/>
		</contour>
	</outline>
</glyph>
<glyph name="x" format="2">
	<unicode hex="0078"/>
	<advance width="415"/>
	<outline>
		<contour>
			<point x="50" y="-1" type="curve" smooth="yes"/>
			<point x="150" y="-1" type="line"/>
			<point x="198" y="104" type="line"/>
			<point x="242" y="-1" type="line"/>
			<point x="365" y="0" type="line" smooth="yes"/>
			<point x="395" y="0"/>
			<point x="416" y="17"/>
			<point x="405" y="40" type="curve" smooth="yes"/>
			<point x="295" y="270" type="line" smooth="yes"/>
			<point x="290" y="280"/>
			<point x="295" y="289"/>
			<point x="301" y="302" type="curve" smooth="yes"/>
			<point x="369" y="453" type="line" smooth="yes"/>
			<point x="373" y="463"/>
			<point x="377" y="483"/>
			<point x="377" y="493" type="curve" smooth="yes"/>
			<point x="376" y="513"/>
			<point x="365" y="530"/>
			<point x="345" y="530" type="curve" smooth="yes"/>
			<point x="266" y="530" type="line" smooth="yes"/>
			<point x="252" y="530"/>
			<point x="239" y="520"/>
			<point x="234" y="501" type="curve" smooth="yes"/>
			<point x="221" y="453" type="line" smooth="yes"/>
			<point x="219" y="446"/>
			<point x="216" y="438"/>
			<point x="211" y="438" type="curve" smooth="yes"/>
			<point x="204" y="438"/>
			<point x="199" y="447"/>
			<point x="197" y="452" type="curve" smooth="yes"/>
			<point x="179" y="496" type="line" smooth="yes"/>
			<point x="170" y="517"/>
			<point x="159" y="530"/>
			<point x="145" y="530" type="curve" smooth="yes"/>
			<point x="50" y="530" type="line" smooth="yes"/>
			<point x="20" y="530"/>
			<point x="10" y="517"/>
			<point x="10" y="500" type="curve" smooth="yes"/>
			<point x="10" y="488"/>
			<point x="16" y="469"/>
			<point x="22" y="457" type="curve" smooth="yes"/>
			<point x="104" y="300" type="line" smooth="yes"/>
			<point x="108" y="293"/>
			<point x="115" y="276"/>
			<point x="110" y="265" type="curve" smooth="yes"/>
			<point x="10" y="40" type="line" smooth="yes"/>
			<point x="-2" y="13"/>
			<point x="20" y="-1"/>
		</contour>
	</outline>
</glyph>
<glyph name="y" format="2">
	<unicode hex="0079"/>
	<advance width="411"/>
	<outline>
		<contour>
			<point x="55" y="-82" type="curve" smooth="yes"/>
			<point x="144" y="-82" type="line" smooth="yes"/>
			<point x="206" y="-82"/>
			<point x="249" y="-38"/>
			<point x="277" y="48" type="curve" smooth="yes"/>
			<point x="325" y="195"/>
			<point x="399" y="434"/>
			<point x="399" y="501" type="curve" smooth="yes"/>
			<point x="399" y="517"/>
			<point x="386" y="530"/>
			<point x="370" y="530" type="curve" smooth="yes"/>
			<point x="263" y="530" type="line" smooth="yes"/>
			<point x="244" y="530"/>
			<point x="231" y="514"/>
			<point x="230" y="499" type="curve" smooth="yes"/>
			<point x="229" y="482"/>
			<point x="223" y="350"/>
			<point x="214" y="295" type="curve" smooth="yes"/>
			<point x="212" y="283"/>
			<point x="211" y="273"/>
			<point x="205" y="273" type="curve" smooth="yes"/>
			<point x="199" y="273"/>
			<point x="198" y="284"/>
			<point x="196" y="295" type="curve" smooth="yes"/>
			<point x="180" y="385"/>
			<point x="181" y="487"/>
			<point x="182" y="502" type="curve" smooth="yes"/>
			<point x="183" y="517"/>
			<point x="164" y="530"/>
			<point x="150" y="530" type="curve" smooth="yes"/>
			<point x="44" y="530" type="line" smooth="yes"/>
			<point x="19" y="530"/>
			<point x="14" y="514"/>
			<point x="14" y="496" type="curve" smooth="yes"/>
			<point x="14" y="470"/>
			<point x="92" y="123"/>
			<point x="92" y="106" type="curve" smooth="yes"/>
			<point x="92" y="86"/>
			<point x="86" y="74"/>
			<point x="65" y="74" type="curve" smooth="yes"/>
			<point x="25" y="74"/>
			<point x="14" y="63"/>
			<point x="14" y="32" type="curve" smooth="yes"/>
			<point x="14" y="-46" type="line" smooth="yes"/>
			<point x="14" y="-67"/>
			<point x="23" y="-82"/>
		</contour>
	</outline>
</glyph>
<glyph name="z" format="2">
	<unicode hex="007A"/>
	<advance width="364"/>
	<outline>
		<contour>
			<point x="60" y="0" type="curve" smooth="yes"/>
			<point x="310" y="0" type="line" smooth="yes"/>
			<point x="340" y="0"/>
			<point x="350" y="10"/>
			<point x="350" y="40" type="curve" smooth="yes"/>
			<point x="350" y="108" type="line" smooth="yes"/>
			<point x="350" y="138"/>
			<point x="340" y="148"/>
			<point x="309" y="148" type="curve" smooth="yes"/>
			<point x="234" y="148" type="line" smooth="yes"/>
			<point x="223" y="148"/>
			<point x="216" y="156"/>
			<point x="216" y="165" type="curve" smooth="yes"/>
			<point x="216" y="181"/>
			<point x="225" y="200"/>
			<point x="239" y="225" type="curve" smooth="yes"/>
			<point x="304" y="342" type="line" smooth="yes"/>
			<point x="329" y="387"/>
			<point x="354" y="417"/>
			<point x="354" y="451" type="curve" smooth="yes"/>
			<point x="354" y="490" type="line" smooth="yes"/>
			<point x="354" y="520"/>
			<point x="344" y="530"/>
			<point x="314" y="530" type="curve" smooth="yes"/>
			<point x="68" y="530" type="line" smooth="yes"/>
			<point x="37" y="530"/>
			<point x="27" y="520"/>
			<point x="27" y="490" type="curve" smooth="yes"/>
			<point x="27" y="442" type="line" smooth="yes"/>
			<point x="27" y="417"/>
			<point x="37" y="402"/>
			<point x="67" y="402" type="curve" smooth="yes"/>
			<point x="110" y="402" type="line" smooth="yes"/>
			<point x="140" y="402"/>
			<point x="150" y="392"/>
			<point x="150" y="372" type="curve" smooth="yes"/>
			<point x="150" y="352"/>
			<point x="137" y="332"/>
			<point x="124" y="307" type="curve" smooth="yes"/>
			<point x="46" y="158" type="line" smooth="yes"/>
			<point x="27" y="122"/>
			<point x="20" y="98"/>
			<point x="20" y="70" type="curve" smooth="yes"/>
			<point x="20" y="40" type="line" smooth="yes"/>
			<point x="20" y="10"/>
			<point x="30" y="0"/>
		</contour>
	</outline>
</glyph>
<glyph name="acutecomb.case" format="2">
	<advance width="256"/>
	<outline>
		<contour>
			<point x="96" y="750" type="curve" smooth="yes"/>
			<point x="131" y="750" type="line" smooth="yes"/>
			<point x="161" y="750"/>
			<point x="149" y="768"/>
			<point x="171" y="790" type="curve" smooth="yes"/>
			<point x="231" y="850" type="line" smooth="yes"/>
			<point x="253" y="872"/>
			<point x="221" y="890"/>
			<point x="191" y="890" type="curve" smooth="yes"/>
			<point x="106" y="890" type="line" smooth="yes"/>
			<point x="76" y="890"/>
			<point x="71" y="881"/>
			<point x="66" y="850" type="curve" smooth="yes"/>
			<point x="56" y="790" type="line" smooth="yes"/>
			<point x="51" y="759"/>
			<point x="66" y="750"/>
		</contour>
	</outline>
	<anchor name="_top" x="105" y="700"/>
	<anchor name="top" x="135" y="890"/>
</glyph>
<glyph name="circumflexcomb.case" format="2">
	<advance width="256"/>
	<outline>
		<contour>
			<point x="56" y="750" type="curve" smooth="yes"/>
			<point x="89" y="772"/>
			<point x="106" y="800"/>
			<point x="123" y="800" type="curve" smooth="yes"/>
			<point x="138" y="800"/>
			<point x="155" y="773"/>
			<point x="190" y="750" type="curve" smooth="yes"/>
			<point x="214" y="734"/>
			<point x="244" y="764"/>
			<point x="230" y="790" type="curve" smooth="yes"/>
			<point x="197" y="850" type="line" smooth="yes"/>
			<point x="183" y="876"/>
			<point x="177" y="890"/>
			<point x="147" y="890" type="curve" smooth="yes"/>
			<point x="93" y="890" type="line" smooth="yes"/>
			<point x="63" y="890"/>
			<point x="58" y="879"/>
			<point x="43" y="850" type="curve" smooth="yes"/>
			<point x="11" y="790" type="line" smooth="yes"/>
			<point x="-4" y="761"/>
			<point x="40" y="739"/>
		</contour>
	</outline>
	<anchor name="_top" x="125" y="700"/>
	<anchor name="top" x="123" y="890"/>
</glyph>
<glyph name="dieresiscomb.case" format="2">
	<advance width="256"/>
	<outline>
		<contour>
			<point x="205" y="750" type="curve" smooth="yes"/>
			<point x="243" y="750" type="line" smooth="yes"/>
			<point x="256" y="750"/>
			<point x="266" y="759"/>
			<point x="266" y="772" type="curve" smooth="yes"/>
			<point x="266" y="810" type="line" smooth="yes"/>
			<point x="266" y="823"/>
			<point x="256" y="833"/>
			<point x="243" y="833" type="curve" smooth="yes"/>
			<point x="205" y="833" type="line" smooth="yes"/>
			<point x="192" y="833"/>
			<point x="183" y="823"/>
			<point x="183" y="810" type="curve" smooth="yes"/>
			<point x="183" y="772" type="line" smooth="yes"/>
			<point x="183" y="759"/>
			<point x="192" y="750"/>
		</contour>
		<contour>
			<point x="22" y="750" type="curve" smooth="yes"/>
			<point x="60" y="750" type="line" smooth="yes"/>
			<point x="73" y="750"/>
			<point x="83" y="759"/>
			<point x="83" y="772" type="curve" smooth="yes"/>
			<point x="83" y="810" type="line" smooth="yes"/>
			<point x="83" y="823"/>
			<point x="73" y="833"/>
			<point x="60" y="833" type="curve" smooth="yes"/>
			<point x="22" y="833" type="line" smooth="yes"/>
			<point x="9" y="833"/>
			<point x="0" y="823"/>
			<point x="0" y="810" type="curve" smooth="yes"/>
			<point x="0" y="772" type="line" smooth="yes"/>
			<point x="0" y="759"/>
			<point x="9" y="750"/>
		</contour>
	</outline>
	<anchor name="_top" x="130" y="700"/>
	<anchor name="top" x="133" y="830"/>
</glyph>
<glyph name="gravecomb.case" format="2">
	<advance width="256"/>
	<outline>
		<contour>
			<point x="106" y="750" type="curve" smooth="yes"/>
			<point x="131" y="750" type="line" smooth="yes"/>
			<point x="161" y="750"/>
			<point x="181" y="760"/>
			<point x="171" y="790" type="curve" smooth="yes"/>
			<point x="151" y="850" type="line" smooth="yes"/>
			<point x="141" y="880"/>
			<point x="141" y="890"/>
			<point x="111" y="890" type="curve" smooth="yes"/>
			<point x="56" y="890" type="line" smooth="yes"/>
			<point x="26" y="890"/>
			<point x="11" y="876"/>
			<point x="26" y="850" type="curve" smooth="yes"/>
			<point x="61" y="790" type="line" smooth="yes"/>
			<point x="76" y="764"/>
			<point x="86" y="750"/>
		</contour>
	</outline>
	<anchor name="_top" x="125" y="700"/>
	<anchor name="top" x="85" y="890"/>
</glyph>
<glyph name="ringcomb.case" format="2">
	<advance width="256"/>
	<outline>
		<contour>
			<point x="125" y="740" type="curve" smooth="yes"/>
			<point x="169" y="740"/>
			<point x="205" y="771"/>
			<point x="205" y="815" type="curve" smooth="yes"/>
			<point x="205" y="859"/>
			<point x="169" y="890"/>
			<point x="125" y="890" type="curve" smooth="yes"/>
			<point x="81" y="890"/>
			<point x="45" y="859"/>
			<point x="45" y="815" type="curve" smooth="yes"/>
			<point x="45" y="771"/>
			<point x="81" y="740"/>
		</contour>
		<contour>
			<point x="125" y="785" type="curve" smooth="yes"/>
			<point x="108" y="785"/>
			<point x="95" y="798"/>
			<point x="95" y="815" type="curve" smooth="yes"/>
			<point x="95" y="832"/>
			<point x="108" y="845"/>
			<point x="125" y="845" type="curve" smooth="yes"/>
			<point x="142" y="845"/>
			<point x="155" y="832"/>
			<point x="155" y="815" type="curve" smooth="yes"/>
			<point x="155" y="798"/>
			<point x="142" y="785"/>
		</contour>
	</outline>
	<anchor name="_top" x="125" y="700"/>
	<anchor name="top" x="125" y="866"/>
</glyph>
<glyph name="tildecomb.case" format="2">
	<advance width="256"/>
	<outline>
		<contour>
			<point x="27" y="750" type="curve" smooth="yes"/>
			<point x="60" y="750"/>
			<point x="76" y="800"/>
			<point x="103" y="800" type="curve" smooth="yes"/>
			<point x="142" y="800"/>
			<point x="159" y="764"/>
			<point x="196" y="764" type="curve" smooth="yes"/>
			<point x="233" y="764"/>
			<point x="266" y="833"/>
			<point x="266" y="850" type="curve" smooth="yes"/>
			<point x="266" y="875"/>
			<point x="263" y="885"/>
			<point x="243" y="885" type="curve" smooth="yes"/>
			<point x="229" y="885"/>
			<point x="198" y="850"/>
			<point x="187" y="850" type="curve" smooth="yes"/>
			<point x="148" y="850"/>
			<point x="132" y="890"/>
			<point x="93" y="890" type="curve" smooth="yes"/>
			<point x="63" y="890"/>
			<point x="2" y="810"/>
			<point x="2" y="790" type="curve" smooth="yes"/>
			<point x="2" y="767"/>
			<point x="8" y="750"/>
		</contour>
	</outline>
	<anchor name="_top" x="125" y="700"/>
	<anchor name="top" x="153" y="890"/>
</glyph>
